<svg version="1.1" xmlns="http://www.w3.org/2000/svg" xmlns:xlink="http://www.w3.org/1999/xlink" x="0px" y="0px" viewBox="0 0 17.4 17.1" style="enable-background:new 0 0 17.4 17.1;" xml:space="preserve"><path fill-rule="evenodd" clip-rule="evenodd" fill="currentcolor" d="M16.8,7.1c-0.3,0-0.6-0.2-0.6-0.6c-0.3-2.8-2.5-5-5.3-5.3c-0.3,0-0.6-0.3-0.6-0.7C10.3,0.2,10.6,0,11,0c3.4,0.4,6,3,6.4,6.4C17.4,6.8,17.2,7.1,16.8,7.1C16.8,7.1,16.8,7.1,16.8,7.1"/><path fill-rule="evenodd" clip-rule="evenodd" fill="currentcolor" d="M13.8,7.1c-0.3,0-0.6-0.2-0.6-0.5C13,5.4,12,4.4,10.8,4.2c-0.3-0.1-0.6-0.4-0.5-0.7C10.4,3.1,10.7,2.9,11,3c1.7,0.3,3.1,1.7,3.4,3.4C14.5,6.7,14.3,7,14,7.1C13.9,7.1,13.9,7.1,13.8,7.1"/><path fill-rule="evenodd" clip-rule="evenodd" fill="currentcolor" d="M2,2.6C2,2.6,1.9,2.6,2,2.6C1.7,2.8,1.3,3.2,1.3,4.1c0,1.2,0.8,3.4,4.6,7.2c3.8,3.8,6,4.5,7.2,4.5h0c0.9,0,1.3-0.4,1.5-0.6c0.1-0.1,0.1-0.1,0.1-0.1c0.8-0.8,1.3-1.5,1.3-1.9c0-0.4-0.5-0.9-1.2-1.6c-0.2-0.2-0.5-0.4-0.7-0.7c-0.7-0.7-1-0.5-1.7-0.3c-1,0.3-2.4,0.8-4.5-1.3C5.6,7.3,6.1,5.9,6.4,4.9c0.3-0.7,0.4-1-0.3-1.7C5.9,2.9,5.6,2.7,5.4,2.5C4.7,1.8,4.3,1.3,3.9,1.3h0C3.5,1.3,2.8,1.7,2,2.6C2,2.6,2,2.6,2,2.6L2,2.6z M15.3,16.1c-0.3,0.3-1,1-2.3,1h0c-2.1,0-4.8-1.7-8-4.9C1.6,8.9,0,6.2,0,4.1C0,2.7,0.7,2,1,1.8c0,0,0.1-0.1,0.1-0.1C2.3,0.5,3.1,0,3.9,0c0.9,0,1.6,0.7,2.4,1.6C6.5,1.8,6.7,2,7,2.3c1.2,1.2,0.9,2.2,0.6,3C7.3,6.2,7,6.9,8.6,8.5c1.6,1.6,2.3,1.3,3.2,1c0.8-0.3,1.8-0.6,3,0.6c0.2,0.2,0.5,0.5,0.7,0.7c0.9,0.8,1.6,1.5,1.6,2.4C17.1,14,16.6,14.8,15.3,16.1" fill="currentcolor"/></svg>