<?xml version="1.0" encoding="utf-8"?>
<!-- Generator: Adobe Illustrator 25.0.0, SVG Export Plug-In . SVG Version: 6.00 Build 0)  -->
<svg version="1.1" id="Layer_1" xmlns="http://www.w3.org/2000/svg" xmlns:xlink="http://www.w3.org/1999/xlink" x="0px" y="0px"
	 viewBox="0 0 211 194" style="enable-background:new 0 0 211 194;" xml:space="preserve">
<style type="text/css">
	.st0{fill:#FFFFFF;fill-opacity:0.13;}
	.st1{fill:#1A6834;}
	.st2{fill:#FFFFFF;}
</style>
<path class="st0" d="M210.4,0.9v154h-89.3V74.6l44.6-73.7H210.4z"/>
<path class="st1" d="M116.7,74.6l-24.6,40.2L18.5,0.9h51.3L116.7,74.6z"/>
<path class="st1" d="M0.6,0.9h11.2l75.9,118.3l-4.5,8.9L0.6,0.9z"/>
<path class="st1" d="M0.6,34.4V16.5l78.1,120.5L72,146L0.6,34.4z"/>
<path class="st1" d="M0.6,56.7V43.3l69.2,107.1l-4.5,4.5L0.6,56.7z"/>
<path class="st0" d="M0.6,154.9h44.6L0.6,81.3V154.9z"/>
<path class="st2" d="M24.9,171.2v21.7h-2.8v-17.3l-6.9,17.3h-2.5l-6.9-17.2v17.2H2.9v-21.7h3.4l7.7,18.2l7.6-18.2H24.9z"/>
<path class="st2" d="M44,187.8h-9.7l-1.8,5.1h-3.1l8.2-21.6h3.2l8.1,21.6h-3.1L44,187.8z M43.1,185.5l-4-11.1l-4,11.1H43.1z"/>
<path class="st2" d="M70.4,192.9h-2.8l-11.4-17.4v17.4h-2.8v-22h2.8l11.4,17.4v-17.4h2.8V192.9z"/>
<path class="st2" d="M79.4,173.1v7.5h8.4v2.2h-8.4v7.7h9.3v2.3H76.6v-22h12.2v2.3H79.4z"/>
<path class="st2" d="M96.8,190.6h7.8v2.2H93.9v-22h2.8V190.6z"/>
<path class="st2" d="M122,187.8h-9.7l-1.8,5.1h-3.1l8.2-21.6h3.2l8.1,21.6h-3.1L122,187.8z M121.1,185.5l-4-11.1l-4,11.1H121.1z"/>
<path class="st2" d="M147.2,192.9l-4.8-5.3c0,0.3-0.1,0.8-0.2,1.2c-0.2,1.3-0.8,2.3-1.8,3.1c-1,0.8-2.2,1.2-3.6,1.2
	c-1.3,0-2.4-0.3-3.4-0.8c-1-0.6-1.8-1.3-2.3-2.3c-0.6-1-0.8-2.1-0.8-3.4c0-1.3,0.2-2.4,0.8-3.3c0.5-1,1.2-1.7,2.1-2.2
	c0.9-0.5,1.8-0.8,2.8-0.8c0.2,0,0.4,0,0.7,0.1l-0.5-0.6c-0.6-0.7-1-1.4-1.3-2c-0.3-0.6-0.4-1.4-0.4-2.2s0.2-1.6,0.6-2.4
	c0.4-0.8,1.1-1.4,1.9-1.8c0.9-0.5,1.9-0.7,3.1-0.7c1.8,0,3.2,0.4,4.1,1.3c1,0.9,1.5,2,1.7,3.4c0.1,0.5,0.2,0.9,0.2,1.4
	c0,0.2,0,0.4,0,0.5h-2.7c0-0.1,0-0.3,0-0.5c0-0.2,0-0.4,0-0.4c0-1-0.3-1.8-0.9-2.4c-0.6-0.6-1.3-0.9-2.3-0.9c-0.9,0-1.6,0.3-2.2,0.8
	c-0.5,0.5-0.8,1.2-0.8,2c0,0.6,0.1,1.2,0.3,1.7c0.2,0.5,0.6,1,1.2,1.6l11.7,13.8H147.2z M136.7,190.6c1.1,0,2.1-0.4,2.8-1.1
	c0.7-0.7,1.1-1.7,1.1-2.8c0-0.8-0.2-1.5-0.6-2.2c-0.4-0.6-1-1.2-1.6-1.5c-0.7-0.4-1.4-0.6-2.1-0.6c-1.1,0-2,0.3-2.7,1
	c-0.7,0.7-1,1.7-1,2.9c0,1.3,0.4,2.3,1.2,3.1C134.6,190.3,135.6,190.6,136.7,190.6z"/>
<path class="st2" d="M163.9,170.6c2.7,0,4.9,0.7,6.7,2c1.8,1.3,3,3.1,3.6,5.4h-3c-0.6-1.5-1.5-2.6-2.7-3.5c-1.2-0.9-2.8-1.3-4.6-1.3
	c-1.4,0-2.7,0.4-3.9,1.1c-1.1,0.7-2,1.7-2.7,3c-0.6,1.3-1,2.8-1,4.6c0,1.7,0.3,3.2,1,4.5c0.7,1.3,1.6,2.3,2.7,3c1.1,0.7,2.4,1,3.9,1
	c1.8,0,3.3-0.4,4.6-1.3c1.2-0.9,2.2-2,2.7-3.5h3c-0.7,2.3-1.9,4.1-3.6,5.4c-1.7,1.3-4,2-6.7,2c-2.1,0-3.9-0.5-5.5-1.4
	c-1.6-1-2.8-2.3-3.7-4c-0.9-1.7-1.3-3.6-1.3-5.8c0-2.2,0.4-4.1,1.3-5.8c0.9-1.7,2.1-3,3.7-4C160,171.1,161.8,170.6,163.9,170.6z"/>
<path class="st2" d="M189.6,170.5c2,0,3.9,0.5,5.5,1.4c1.6,1,2.9,2.3,3.9,4c0.9,1.7,1.4,3.6,1.4,5.8c0,2.2-0.5,4.1-1.4,5.8
	c-0.9,1.7-2.2,3-3.9,4c-1.6,1-3.5,1.4-5.5,1.4c-2,0-3.9-0.5-5.6-1.4c-1.6-1-2.9-2.3-3.9-4c-0.9-1.7-1.4-3.7-1.4-5.8
	c0-2.2,0.5-4.1,1.4-5.8c0.9-1.7,2.2-3.1,3.9-4C185.8,171,187.6,170.5,189.6,170.5z M189.6,173.2c-1.5,0-2.9,0.4-4.1,1.1
	c-1.2,0.7-2.1,1.7-2.8,3c-0.7,1.3-1,2.8-1,4.6c0,1.7,0.3,3.2,1,4.6c0.7,1.3,1.6,2.3,2.8,3c1.2,0.7,2.6,1,4.1,1c1.5,0,2.8-0.4,4-1.1
	c1.2-0.7,2.1-1.7,2.8-3c0.7-1.3,1-2.8,1-4.6c0-1.8-0.3-3.3-1-4.6c-0.7-1.3-1.6-2.3-2.8-3C192.5,173.5,191.1,173.2,189.6,173.2z"/>
<path class="st2" d="M207.9,189.5v3.3h-3.4v-3.3H207.9z"/>
</svg>
